C:\Users\israe\Dropbox\PhDWork\ExperimentalData\subject9\055\P9S055W03_filtered35.mot
nRows=10
nColumns=28

name C:\Users\israe\Dropbox\PhDWork\ExperimentalData\subject9\055\P9S055W03_filtered35.mot
datacolumns 28
datarows 10
range 0.8470000000 0.8560000000
endheader
time	ground_force_1_vx	ground_force_1_vy	ground_force_1_vz	ground_force_1_px	ground_force_1_py	ground_force_1_pz	ground_moment_1_mx	ground_moment_1_my	ground_moment_1_mz	ground_force_2_vx	ground_force_2_vy	ground_force_2_vz	ground_force_2_px	ground_force_2_py	ground_force_2_pz	ground_moment_2_mx	ground_moment_2_my	ground_moment_2_mz	ground_force_3_vx	ground_force_3_vy	ground_force_3_vz	ground_force_3_px	ground_force_3_py	ground_force_3_pz	ground_moment_3_mx	ground_moment_3_my	ground_moment_3_mz
        0.8470000000	       42.6204454828	      787.8030836913	       44.6353230157	        0.1988394961	        0.0000558755	       -0.3004071324	     -106.8131567555	       12.0427792701	      -71.4489374081	       -0.0000000010	        0.0000000000	        0.0000000009	        0.2029003516	       -0.0000795827	        0.4543649445	       -0.0000000002	        0.0000000000	       -0.0000000001	       -0.0000000000	        0.0000000000	        0.0000000000	        0.2076431971	        0.0000770316	        1.3583900146	       -0.0000000000	        0.0000000000	        0.0000000000	
        0.8480000000	       42.7806328818	      788.1042618740	       44.6969881395	        0.1988394961	        0.0000558755	       -0.3004071324	     -107.3576483154	       12.1005810278	      -71.5339076368	       -0.0000000013	        0.0000000000	        0.0000000010	        0.2029003516	       -0.0000795827	        0.4543649445	       -0.0000000003	        0.0000000001	       -0.0000000002	       -0.0000000000	        0.0000000000	        0.0000000000	        0.2076431971	        0.0000770316	        1.3583900146	        0.0000000000	        0.0000000000	       -0.0000000000	
        0.8490000000	       42.9464393472	      788.4061374749	       44.7655604510	        0.1988394961	        0.0000558755	       -0.3004071324	     -107.9054726354	       12.1603298741	      -71.6182893654	       -0.0000000016	        0.0000000000	        0.0000000010	        0.2029003516	       -0.0000795827	        0.4543649445	       -0.0000000004	        0.0000000001	       -0.0000000003	       -0.0000000000	        0.0000000000	       -0.0000000000	        0.2076431971	        0.0000770316	        1.3583900146	        0.0000000000	        0.0000000000	       -0.0000000000	
        0.8500000000	       43.1158827894	      788.7134397972	       44.8431016755	        0.1988394961	        0.0000558755	       -0.3004071324	     -108.4556020442	       12.2219812264	      -71.7012754801	       -0.0000000019	        0.0000000000	        0.0000000010	        0.2029003516	       -0.0000795827	        0.4543649445	       -0.0000000006	        0.0000000001	       -0.0000000004	       -0.0000000000	        0.0000000000	       -0.0000000000	        0.2076431971	        0.0000770316	        1.3583900146	        0.0000000000	        0.0000000000	       -0.0000000000	
        0.8510000000	       43.2864757533	      789.0306967518	       44.9316625836	        0.1988394961	        0.0000558755	       -0.3004071324	     -109.0065387012	       12.2855044082	      -71.7821449957	       -0.0000000022	        0.0000000000	        0.0000000008	        0.2029003516	       -0.0000795827	        0.4543649445	       -0.0000000008	        0.0000000002	       -0.0000000005	       -0.0000000000	        0.0000000000	       -0.0000000000	        0.2076431971	        0.0000770316	        1.3583900146	        0.0000000000	        0.0000000000	       -0.0000000000	
        0.8520000000	       43.4556517804	      789.3618505418	       45.0330772939	        0.1988394961	        0.0000558755	       -0.3004071324	     -109.5566083256	       12.3507990867	      -71.8605524526	       -0.0000000024	        0.0000000000	        0.0000000005	        0.2029003516	       -0.0000795827	        0.4543649445	       -0.0000000009	        0.0000000002	       -0.0000000006	       -0.0000000000	        0.0000000000	       -0.0000000000	        0.2076431971	        0.0000770316	        1.3583900146	        0.0000000000	        0.0000000000	       -0.0000000000	
        0.8530000000	       43.6213443805	      789.7103290218	       45.1487576548	        0.1988394961	        0.0000558755	       -0.3004071324	     -110.1043610747	       12.4176077319	      -71.9368151815	       -0.0000000025	        0.0000000000	        0.0000000000	        0.2029003516	       -0.0000795827	        0.4543649445	       -0.0000000011	        0.0000000003	       -0.0000000007	       -0.0000000000	        0.0000000000	       -0.0000000000	        0.2076431971	        0.0000770316	        1.3583900146	        0.0000000000	        0.0000000000	       -0.0000000000	
        0.8540000000	       43.7825749740	      790.0787825173	       45.2797997378	        0.1988394961	        0.0000558755	       -0.3004071324	     -110.6489268708	       12.4856335512	      -72.0117821590	       -0.0000000025	        0.0000000000	       -0.0000000007	        0.2029003516	       -0.0000795827	        0.4543649445	       -0.0000000013	        0.0000000003	       -0.0000000009	       -0.0000000000	        0.0000000000	       -0.0000000000	        0.2076431971	        0.0000770316	        1.3583900146	        0.0000000000	        0.0000000000	       -0.0000000000	
        0.8550000000	       43.9397419939	      790.4679553002	       45.4273315690	        0.1988394961	        0.0000558755	       -0.3004071324	     -111.1901421420	       12.5546768954	      -72.0864107775	       -0.0000000021	        0.0000000000	       -0.0000000017	        0.2029003516	       -0.0000795827	        0.4543649445	       -0.0000000015	        0.0000000004	       -0.0000000010	       -0.0000000000	        0.0000000000	       -0.0000000000	        0.2076431971	        0.0000770316	        1.3583900146	        0.0000000000	        0.0000000000	       -0.0000000000	
        0.8560000000	       44.0945472690	      790.8764695497	       45.5923563120	        0.1988394961	        0.0000558755	       -0.3004071324	     -111.7282960014	       12.6246166458	      -72.1615303960	       -0.0000000014	        0.0000000000	       -0.0000000031	        0.2029003516	       -0.0000795827	        0.4543649445	       -0.0000000016	        0.0000000004	       -0.0000000010	       -0.0000000000	        0.0000000000	       -0.0000000000	        0.2076431971	        0.0000770316	        1.3583900146	        0.0000000000	        0.0000000000	       -0.0000000000	
